<?xml version="1.0" standalone="no"?>
<!DOCTYPE svg PUBLIC "-//W3C//DTD SVG 20010904//EN"
 "http://www.w3.org/TR/2001/REC-SVG-20010904/DTD/svg10.dtd">
<svg version="1.0" xmlns="http://www.w3.org/2000/svg"
 width="1536.000000pt" height="1024.000000pt" viewBox="0 0 1536.000000 1024.000000"
 preserveAspectRatio="xMidYMid meet">

<g transform="translate(0.000000,1024.000000) scale(0.100000,-0.100000)"
fill="#000000" stroke="none">
<path d="M3693 6796 c-153 -89 -415 -243 -583 -342 -168 -99 -378 -222 -468
-274 l-162 -95 2 -854 3 -855 110 -64 c162 -95 464 -274 765 -452 146 -86 330
-194 410 -240 80 -46 157 -92 173 -102 l27 -20 163 95 c176 102 957 560 1182
693 77 46 145 87 150 91 7 6 9 302 7 860 l-2 851 -188 109 c-103 61 -272 160
-377 220 -104 61 -343 199 -530 308 -187 108 -354 205 -372 215 l-31 18 -279
-162z m418 -272 c129 -78 340 -200 876 -510 l173 -99 -3 -684 -2 -683 -65 -37
c-106 -61 -316 -183 -971 -564 l-146 -84 -591 344 -592 345 2 681 3 680 110
65 c415 245 1025 608 1061 631 1 1 67 -38 145 -85z"/>
<path d="M3877 6101 c-54 -32 -103 -63 -109 -69 -6 -6 -27 -53 -48 -104 -20
-51 -78 -190 -127 -308 -111 -265 -364 -877 -392 -946 l-19 -51 121 -66 c67
-36 129 -69 137 -72 12 -4 33 39 98 204 l83 209 175 -79 c96 -43 179 -79 184
-79 5 0 82 36 171 80 89 44 163 79 164 78 1 -2 35 -82 75 -178 40 -96 81 -192
91 -212 l19 -37 130 73 c72 41 133 76 137 79 5 5 -116 296 -347 837 -48 113
-122 287 -165 388 l-77 183 -100 65 c-54 35 -100 64 -101 64 -1 0 -46 -27
-100 -59z m128 -471 c37 -90 153 -357 176 -404 10 -22 18 -40 16 -42 -1 -1
-51 -28 -110 -59 l-109 -57 -114 56 c-63 31 -114 59 -114 61 0 3 20 51 44 108
23 56 72 173 107 259 35 86 67 153 71 150 3 -4 18 -36 33 -72z"/>
<path d="M8915 6390 c-124 -17 -255 -86 -333 -176 -51 -57 -116 -187 -131
-262 -15 -75 -13 -226 4 -300 46 -193 203 -351 396 -397 83 -19 248 -19 324 0
85 23 172 72 232 133 52 53 106 148 118 208 l6 31 -73 7 c-40 3 -101 9 -134
12 -61 6 -61 6 -68 -22 -20 -81 -110 -144 -215 -152 -140 -10 -249 54 -306
180 -26 55 -29 75 -29 158 0 114 23 184 84 253 129 147 405 118 460 -48 10
-31 16 -36 34 -31 11 3 70 9 130 12 l108 7 -5 38 c-13 99 -115 238 -215 292
-92 50 -261 75 -387 57z"/>
<path d="M6571 6318 c-11 -29 -105 -278 -210 -553 -105 -274 -191 -503 -191
-507 0 -5 62 -7 137 -6 l136 3 32 95 32 95 219 3 220 2 32 -100 33 -100 140 0
c76 0 139 2 139 5 0 5 -174 463 -280 735 -39 102 -88 229 -108 282 l-37 98
-137 0 -137 0 -20 -52z m228 -446 l70 -202 -138 0 -139 0 27 83 c15 45 45 137
66 203 22 67 41 121 42 120 1 -1 34 -93 72 -204z"/>
<path d="M7428 6223 c-2 -82 -2 -334 0 -560 l2 -413 125 0 125 0 0 200 0 200
78 0 77 -1 100 -184 c55 -101 105 -191 111 -200 10 -13 35 -15 157 -13 l144 3
-123 210 c-68 116 -123 212 -124 215 0 3 20 16 46 29 67 36 137 118 159 186
24 79 18 202 -15 270 -48 99 -149 173 -265 194 -33 6 -176 11 -327 11 l-267 0
-3 -147z m545 -87 c52 -22 70 -50 75 -116 4 -48 0 -65 -17 -93 -32 -52 -81
-67 -225 -70 l-121 -2 -3 148 -3 147 131 0 c88 0 141 -4 163 -14z"/>
<path d="M9913 6233 c-28 -76 -82 -217 -118 -313 -37 -96 -107 -278 -155 -405
-48 -126 -91 -238 -95 -247 -7 -17 3 -18 128 -18 l134 0 34 100 34 100 219 -2
219 -3 35 -97 35 -98 138 0 c82 0 139 4 139 10 0 5 -43 121 -96 257 -52 136
-148 384 -212 551 l-116 302 -136 0 -136 0 -51 -137z m257 -369 l66 -194 -139
0 c-107 0 -138 3 -135 13 3 6 33 96 68 200 34 103 66 185 69 181 3 -3 35 -93
71 -200z"/>
<path d="M10790 5810 l0 -561 128 3 127 3 0 353 c0 238 3 348 10 338 6 -8 40
-59 77 -113 36 -54 143 -206 236 -338 l169 -240 116 -3 117 -3 0 561 0 560
-125 0 -125 0 0 -342 c-1 -272 -3 -340 -13 -326 -7 9 -113 163 -237 342 l-224
326 -128 0 -128 0 0 -560z"/>
<path d="M12000 5810 l0 -560 400 0 400 0 0 115 0 115 -275 0 -275 0 0 115 0
115 245 0 245 0 0 105 0 105 -245 0 -245 0 0 115 0 115 275 0 275 0 0 110 0
110 -400 0 -400 0 0 -560z"/>
<path d="M8496 4994 c-263 -64 -430 -306 -413 -600 10 -174 72 -308 185 -400
113 -92 232 -134 382 -134 170 0 302 53 416 165 110 109 164 242 164 410 0
275 -172 499 -431 560 -79 18 -224 18 -303 -1z m291 -250 c62 -30 107 -78 142
-154 23 -48 26 -68 26 -160 0 -92 -3 -112 -26 -160 -35 -74 -67 -111 -130
-145 -69 -37 -172 -46 -249 -20 -74 25 -150 101 -180 180 -29 75 -32 195 -7
276 54 178 253 264 424 183z"/>
<path d="M9779 4996 c-267 -59 -448 -319 -424 -611 20 -243 150 -421 361 -496
83 -29 264 -37 358 -15 147 35 265 126 329 255 20 40 37 84 37 96 0 21 -5 22
-115 29 -64 4 -122 9 -130 12 -9 4 -19 -7 -30 -33 -20 -48 -59 -89 -110 -116
-32 -18 -57 -22 -130 -22 -81 0 -95 3 -145 30 -109 60 -167 186 -157 342 9
148 78 252 191 289 140 47 291 -4 341 -116 l19 -42 55 6 c31 3 91 8 134 12
l78 6 -6 32 c-12 59 -64 156 -110 205 -56 60 -162 117 -252 136 -81 17 -217
18 -294 1z"/>
<path d="M11885 4996 c-114 -28 -202 -90 -250 -177 -27 -49 -30 -63 -30 -149
0 -110 16 -152 84 -213 59 -53 119 -80 282 -127 204 -59 229 -75 229 -146 0
-35 -5 -47 -30 -68 -17 -14 -47 -28 -66 -32 -54 -10 -165 1 -202 20 -37 19
-72 70 -72 105 0 23 -2 24 -52 17 -29 -3 -86 -6 -125 -6 l-73 0 0 -35 c0 -53
36 -138 81 -189 47 -53 156 -111 238 -126 71 -13 183 -13 257 1 181 33 306
165 308 324 3 173 -102 269 -374 345 -128 36 -204 70 -220 99 -29 55 2 120 68
139 110 33 211 0 251 -82 23 -47 25 -48 60 -42 20 3 74 6 120 6 l84 0 -7 43
c-19 123 -76 205 -178 255 -104 50 -265 67 -383 38z"/>
<path d="M6185 4435 l0 -556 315 3 c301 3 318 4 372 26 128 51 202 157 201
287 0 119 -64 212 -172 255 l-45 17 36 17 c88 42 137 123 138 227 0 117 -62
204 -180 251 -52 21 -73 23 -360 26 l-305 3 0 -556z m525 327 c78 -38 87 -144
17 -194 -28 -20 -46 -23 -154 -26 l-123 -4 0 121 0 121 113 0 c87 0 120 -4
147 -18z m30 -434 c68 -35 89 -102 54 -169 -26 -52 -80 -69 -221 -69 l-123 0
0 130 0 130 123 0 c107 0 128 -3 167 -22z"/>
<path d="M7240 4435 l0 -555 380 0 381 0 -3 108 -3 107 -245 2 -245 1 -3 446
-2 446 -130 0 -130 0 0 -555z"/>
<path d="M10593 4435 l-1 -555 129 0 129 0 0 168 0 168 48 52 47 52 146 -217
146 -218 163 -3 164 -3 -21 23 c-17 19 -198 275 -372 525 l-43 61 103 129 c56
70 147 183 201 251 l97 122 -157 0 -157 -1 -175 -230 -175 -230 -3 231 -2 230
-133 0 -133 0 -1 -555z"/>
</g>
</svg>
